<?xml version="1.0" encoding="utf-8"?>
<!-- Generator: Adobe Illustrator 24.1.2, SVG Export Plug-In . SVG Version: 6.00 Build 0)  -->
<svg version="1.1" id="Capa_0_xA0_Image_1_" xmlns="http://www.w3.org/2000/svg" xmlns:xlink="http://www.w3.org/1999/xlink"
	 x="0px" y="0px" viewBox="0 0 2473.4 262.8" style="enable-background:new 0 0 2473.4 262.8;" xml:space="preserve">
<style type="text/css">
	.st0{fill:#ED2D23;}
	.st1{display:none;}
	.st2{display:inline;fill:#555555;}
	.st3{fill:#555555;}
	.st4{font-family:'ArialUnicodeMS';}
	.st5{font-size:227px;}
</style>
<g>
	<path class="st0" d="M630.7,256.8c-17.1-1.6-29-3.1-33.2-3.5c-0.7-0.1-2.8-0.2-4.1-1.8c-0.9-1.1-1.3-2.6-1.2-4.5
		c0.4-8,0.6-16,1.1-23.9c0.2-4,2.6-5.2,6.5-4.9c12.8,0.9,25.6,1.9,38.3,2.3c15.1,0.5,24.1-8.7,24.2-24c0-2.3,0-4.6,0-8
		c-2.5,1.3-4.3,2.2-6.1,3.1c-13.5,7-27.7,9.5-42.5,6c-18.7-4.3-32.5-20.8-33.3-41.3c-0.8-21.6-1-43.3,0-64.8
		c1.4-28.8,26-47.5,54.4-42.1c9.2,1.8,17.9,5.5,26.9,8.3c-0.1,0.4-0.2,0.8-0.3,1.2c0.2-0.2,0.7-0.3,0.7-0.5
		c1.2-7.5,6.3-8.5,12.8-8.1c6.8,0.4,13.7,0.2,20.5,0.1c4.4-0.1,6.4,1.7,6.4,6.2c-0.1,48.8,0.3,97.6-0.2,146.4
		c-0.1,14.8-3.8,23.4-10.6,32.3c-12.7,16.7-33.6,21-44,21.8C641.5,257.4,636,256.9,630.7,256.8z M662.2,124.2c0-5.2,0-10.3,0-15.5
		c0-14.9-1.5-17-15.8-21.6c-2-0.7-4.2-1.1-6.3-1.6c-11.2-2.3-19,2.5-20.3,13.9c-1.1,9.9-1,19.9-1,29.9c0,6.6,0.1,13.4,1.1,19.9
		c1.4,9.3,7.6,13.9,16.9,13.3c8.9-0.6,16.7-4.3,23.8-9.4c1-0.7,1.5-2.8,1.6-4.3C662.2,140.5,662.1,132.4,662.2,124.2z"/>
	<path class="st0" d="M1212.9,257.3c-6.5-0.7-13.1-1.5-19.6-2.3c-5.1-0.6-10.3-0.9-15.3-2.1c-1.7-0.4-4.1-3.2-4.1-5
		c-0.2-7.6,0.2-15.3,0.6-22.9c0.3-6.1,1.7-7,7.8-6.6c12.6,0.8,25.2,1.8,37.8,2.1c14.4,0.4,23.3-8.7,23.3-23.2c0-2.6,0-5.2,0-8.6
		c-3.2,1.6-5.5,2.8-7.8,3.9c-12.5,6.1-25.6,8-39.3,5.4c-17.7-3.4-31.9-18-33.8-37.9c-1.8-18.8-1.2-37.9-1.5-56.8
		c-0.1-4.5,0.3-9,0.9-13.4c5.1-36.2,35.2-47.5,64.6-38.3c5.6,1.8,10.9,4.6,16.4,6.9c0.3-0.2,0.7-0.3,0.8-0.5
		c2.9-7.6,2.9-7.6,11.4-7.6c7,0,14-0.2,21,0.1c0.4,0,0.9,0.1,1.7,0.1c1.2,0.1,5.2,0.5,5.4,2.3c0,52.6,0.9,103-0.5,155.5
		c-0.2,6-2.6,17.9-11.6,28.5c-10.2,11.9-23.4,16-30.5,17.9c-4.1,1.1-8.3,1.7-12.5,2.6C1222.9,257.3,1217.9,257.3,1212.9,257.3z
		 M1243.3,123.7c0-5.2,0-10.3,0-15.5c0-14.6-1.3-16.4-15.3-21.1c-2.2-0.7-4.5-1.3-6.7-1.7c-11.4-2.2-19.9,3.5-20.5,15.2
		c-0.7,15.5-0.7,31,0,46.4c0.5,10.5,7.6,16.2,17.6,15.4c8.5-0.7,16.1-4,22.9-9.1c1.3-0.9,1.9-3.4,1.9-5.1
		C1243.4,140,1243.3,131.9,1243.3,123.7z"/>
	<path class="st0" d="M180.9,5.3c3.2,0.2,3.3,2.2,3.5,7c0.4,13,0.2,27.7,0.2,40.6c0,1.8,0,3.5,0,5.1c7.7-2.8,14.6-6.2,22-7.9
		c17.6-3.9,34.2-1.9,47.4,12.1c8.2,8.7,12.3,19.6,12.5,31.3c0.5,34.8,0.3,69.7,0.4,104.5c0,4.5-2.5,5.8-6.3,5.8
		c-8.7,0-17.3,0.1-26,0c-5.4-0.1-6.7-1.4-6.7-6.9c0-29,0-58-0.1-87c0-4.1-0.4-8.4-1.4-12.3c-2.3-9.5-8.7-14.3-18-12.2
		c-7.5,1.7-14.5,5.3-21.5,8.6c-1.4,0.7-2.2,3.9-2.2,5.9c-0.1,31.5-0.1,63-0.1,94.5c0,8.5-1,9.4-9.5,9.4c-7.8,0-15.7,0-23.5,0
		c-4.5,0-6.6-1.9-6.6-6.6c0.1-61.7,0-123.3,0.2-185c0-4.4-0.2-6.7,3.6-6.9C159.5,5.1,170.3,5.2,180.9,5.3z"/>
	<path class="st0" d="M3.2,98.5c0.4-4.1,1.3-7.8,1.3-7.8c0.5-2,3.4-14.1,12.5-24c8.7-9.5,20.9-15.6,35.2-17.2
		c14.7-1.6,29-0.8,42.5,5.5c20,9.4,29.1,25.8,30.1,47.4c0.2,3.9-1.7,5.6-5.2,5.6c-9.5,0.1-19,0-28.5,0c-4,0-5.1-2.7-5.9-6.1
		c-2-8.6-7.4-14.1-15.8-16.3C61,83.5,53.7,85.8,47.8,92c-4.1,4.3-5.9,9.6-5.9,15.5c-0.1,13-0.1,26,0,39c0.1,12.2,8.5,21.4,20.3,22.7
		c10.4,1.1,20-6.1,22.9-17.4c1-4,3.1-5.4,7.1-5.3c8.2,0.2,16.3,0.1,24.5,0.1c7.2,0,8.5,1.4,7.9,8.5c-2.1,23.9-16.3,40.9-39.5,47.2
		c-17.4,4.7-34.7,4.1-51.3-3.2c-7.4-3.2-13.4-7.6-18.1-13C7.2,176.3,5,165.6,4.1,160.9c-0.6-2.8-0.8-5.2-0.9-6.9
		C2.6,123.8,2.8,101.7,3.2,98.5z"/>
	<path class="st0" d="M371,195.5c-9.2,3.1-17.9,7.4-27.1,8.8c-29.6,4.6-52.5-10.8-56.7-38.3c-4.1-26.9,12.3-49.8,39.5-54.3
		c11.9-2,24.2-1.1,36.3-1.5c2.5-0.1,4.9,0,7.2,0c2.9-15.1-6-26.2-20.4-26.5c-12.7-0.2-24.7,3-36.5,7.2c-6.8,2.4-8.2,1.7-10.4-5.4
		c-1.9-6-3.8-12-5.6-18.1c-1-3.4-1.3-6.5,3-8.2c23.1-9.7,46.7-14.2,71.5-7.9c22.8,5.8,37,22.1,37.6,45.6c0.8,33.3,0.7,66.6,0.9,99.9
		c0,5.3-1.6,6.8-6.9,6.9c-7.3,0.1-14.7-0.2-22,0.1c-5.2,0.2-8.8-1.2-9.7-6.8C371.7,196.3,371.1,195.6,371,195.5z M371.1,139.2
		c-9.3,0-17.8-0.5-26.2,0.2c-4.2,0.3-8.8,2.1-12.4,4.4c-5.4,3.4-6.9,9.2-5.7,15.4c1.2,5.6,5.3,8.9,10.7,9.9
		c11.9,2.3,22.7-0.3,31.8-8.6c0.9-0.8,1.7-2.2,1.7-3.4C371.2,151.2,371.1,145.4,371.1,139.2z"/>
	<path class="st0" d="M764.1,144.2c-1.6,13.2,7.6,24.5,19.9,24.3c13-0.1,25.9-0.9,38.8-1.9c8.1-0.6,9.7,0.4,9.9,8.6
		c0.2,6.6,0.6,13.3,0.9,19.9c0.2,4.1-1.7,6.4-5.7,6.7c-16.1,1.1-32.2,2.8-48.3,2.9c-24,0.2-45-14.2-51.9-35.1
		c-2.1-6.4-3.2-13.3-3.5-20c-0.5-15.3-0.2-30.6-0.1-46c0.1-29.2,19.6-50.8,48.6-54.5c11.1-1.4,21.9-1.2,32.6,1.6
		C831,57.7,846,77,846.4,103.8c0.2,11,0.1,22,0,33c0,6.3-1.2,7.5-7.7,7.5c-22.8,0-45.6,0-68.5,0
		C768.3,144.2,766.3,144.2,764.1,144.2z M806.6,113.4c1.7-11.6-2.1-20.5-10.4-25.3c-8-4.7-17.3-3.9-24.7,2c-6.6,5.3-9.5,14.9-7,23.4
		C778.4,113.4,792.3,113.4,806.6,113.4z"/>
	<path class="st0" d="M917.1,125.8c0.2-11.7-0.3-22.4,1.5-34.3c3.9-22.8,22.6-39,46.1-42.1c11.4-1.5,22.6-1.4,33.7,1.6
		c25.2,6.8,39.1,23.3,40.7,50.8c1,17.7,0.9,35.7-0.5,53.4c-2,26.6-18.5,43.8-44.9,48.6c-13.8,2.5-27.5,2-40.9-2.7
		c-22.1-7.8-35.3-26.2-35.6-49.7c-0.1-8.2,0-16.3,0-24.5C917,126.9,917.3,125.8,917.1,125.8z M956.6,126.9c0,6.5,0,13,0,19.5
		c0.1,12.4,8.6,21.9,20.2,22.3c12.7,0.5,22.7-8.1,23.2-20.9c0.5-13.8,0.5-27.7,0-41.5c-0.4-12.5-10.6-21.7-22.5-21.3
		c-11.8,0.4-20.8,10-20.8,22.4C956.6,113.9,956.6,120.4,956.6,126.9z"/>
	<path class="st0" d="M473.5,57.8c9.8-3.1,18.8-6.8,28.1-8.6c27.1-5.2,50.3,12,54,39.4c0.7,5.1,1,10.3,1,15.4c0.1,30.7,0,61.3,0,92
		c0,6.6-1.2,7.7-7.9,7.8c-8,0-16,0-24,0c-6.1,0-7.6-1.5-7.6-7.7c0-29.3,0-58.7,0-88c0-1.7,0-3.3,0-5c-0.7-13.8-8.8-20-22.4-17.2
		c-1.8,0.4-3.6,0.7-5.3,1.3c-14,4.7-15.6,6.8-15.6,21.4c0,29,0,58,0,87c0,7.4-0.9,8.2-8.4,8.2c-8,0-16-0.1-24,0
		c-4.5,0-6.6-1.6-6.6-6.5c0.1-47,0.1-94,0-141c0-4.6,1.8-6.3,6.2-6.1c6.7,0.2,13.3,0.2,20,0C467.4,50,473.7,49.5,473.5,57.8z"/>
	<path class="st0" d="M1101.9,62.8c5-2.9,9.2-6.2,13.9-7.8c8.1-2.7,16.5-4.7,24.9-6.3c4.8-0.9,6.5,1.6,6.3,6.4
		c-0.4,8.3-0.9,16.6-1.1,24.9c-0.1,4.3-2.2,5.9-6.2,6c-12.3,0.3-23.4,4.2-33.7,10.9c-3.2,2.1-4.7,4.3-4.7,8.4
		c0.2,29.8,0.1,59.6,0.1,89.5c0,8-0.9,9-8.8,9c-8,0-16,0-24,0c-4.5,0-6.6-1.7-6.6-6.6c0.1-46.8,0.1-93.6,0-140.5
		c0-4.7,1.6-6.7,6.4-6.5c8,0.2,16,0.3,24,0c4.8-0.2,7.1,1.7,7.7,6.3C1100.4,58.5,1101.2,60.5,1101.9,62.8z"/>
	<path class="st0" d="M899.6,183.6c-0.1,12.7-9.3,22.3-21.3,22.3c-12,0-22-10.3-22-22.6c0-12,9.5-21.2,21.8-21.1
		C890.5,162.3,899.7,171.5,899.6,183.6z"/>
</g>
<g class="st1">
	<path class="st2" d="M1840.6-11.6c-2.9,0-5.7-0.6-8.4-1.7c-2.7-1.1-5-2.7-6.9-4.6c-2-2-3.5-4.2-4.6-6.8c-1.1-2.6-1.7-5.4-1.7-8.5
		s0.6-5.9,1.7-8.5c1.1-2.6,2.7-4.8,4.6-6.8c2-2,4.3-3.5,6.9-4.6c2.7-1.1,5.4-1.7,8.4-1.7c6,0,11.1,2.1,15.4,6.3
		c4.3,4.2,6.4,9.3,6.4,15.3c0,6-2.1,11.1-6.4,15.3C1851.8-13.7,1846.6-11.6,1840.6-11.6z"/>
</g>
<image style="display:none;overflow:visible;" width="1280" height="252" id="_x35_.psd" xlink:href="../PBC/change-org-logo_red (1).png"  transform="matrix(2.0013 0 0 2.0013 23.0052 -121.5676)">
</image>
<text transform="matrix(1 0 0 1 1379.4927 211.1126)" class="st3 st4 st5">ประเทศไทย</text>
</svg>
